name C:\Users\u0101727\Documents\MyRepositories\3dpredictsim/Results/PredSim_all_opti_int_NLPSol_order_par_mtp/IK_c6_v133_T4_N50_E500_Ak50000_AE1000000_P1000_A2000_eE2_G2_M3_Gm1_W0_vM0_pW0_mE0_cc0.mot
datacolumns 126
datarows 4
range 1.57944385 1.61103273
endheader
time	pelvis_tilt	pelvis_list	pelvis_rotation	pelvis_tx	pelvis_ty	pelvis_tz	hip_flexion_l	hip_adduction_l	hip_rotation_l	hip_flexion_r	hip_adduction_r	hip_rotation_r	knee_angle_l	knee_angle_r	ankle_angle_l	ankle_angle_r	subtalar_angle_l	subtalar_angle_r	mtp_angle_l	mtp_angle_r	lumbar_extension	lumbar_bending	lumbar_rotation	arm_flex_l	arm_add_l	arm_rot_l	arm_flex_r	arm_add_r	arm_rot_r	elbow_flex_l	elbow_flex_r	pro_sup_l	pro_sup_r	glut_med1_l/activation	glut_med2_l/activation	glut_med3_l/activation	glut_min1_l/activation	glut_min2_l/activation	glut_min3_l/activation	semimem_l/activation	semiten_l/activation	bifemlh_l/activation	bifemsh_l/activation	sar_l/activation	add_long_l/activation	add_brev_l/activation	add_mag1_l/activation	add_mag2_l/activation	add_mag3_l/activation	tfl_l/activation	pect_l/activation	grac_l/activation	glut_max1_l/activation	glut_max2_l/activation	glut_max3_l/activation	iliacus_l/activation	psoas_l/activation	quad_fem_l/activation	gem_l/activation	peri_l/activation	rect_fem_l/activation	vas_med_l/activation	vas_int_l/activation	vas_lat_l/activation	med_gas_l/activation	lat_gas_l/activation	soleus_l/activation	tib_post_l/activation	flex_dig_l/activation	flex_hal_l/activation	tib_ant_l/activation	per_brev_l/activation	per_long_l/activation	per_tert_l/activation	ext_dig_l/activation	ext_hal_l/activation	ercspn_l/activation	intobl_l/activation	extobl_l/activation	glut_med1_r/activation	glut_med2_r/activation	glut_med3_r/activation	glut_min1_r/activation	glut_min2_r/activation	glut_min3_r/activation	semimem_r/activation	semiten_r/activation	bifemlh_r/activation	bifemsh_r/activation	sar_r/activation	add_long_r/activation	add_brev_r/activation	add_mag1_r/activation	add_mag2_r/activation	add_mag3_r/activation	tfl_r/activation	pect_r/activation	grac_r/activation	glut_max1_r/activation	glut_max2_r/activation	glut_max3_r/activation	iliacus_r/activation	psoas_r/activation	quad_fem_r/activation	gem_r/activation	peri_r/activation	rect_fem_r/activation	vas_med_r/activation	vas_int_r/activation	vas_lat_r/activation	med_gas_r/activation	lat_gas_r/activation	soleus_r/activation	tib_post_r/activation	flex_dig_r/activation	flex_hal_r/activation	tib_ant_r/activation	per_brev_r/activation	per_long_r/activation	per_tert_r/activation	ext_dig_r/activation	ext_hal_r/activation	ercspn_r/activation	intobl_r/activation	extobl_r/activation	
          1.57944385	         -2.92779895	          2.17667946	         -5.24262670	          2.10066033	          0.92216136	         -0.00043970	         28.62982862	          4.24227150	          0.51681169	        -17.14897002	         -1.14454126	          8.02285294	        -11.62173594	         -7.66906002	          7.90015239	         -2.69586352	          2.03147541	         15.13529970	         -0.10263460	         24.80814244	         -2.19570387	         -0.74273753	          1.60248060	         -4.98034940	        -13.45325722	          6.15097510	          5.47289368	        -13.46227736	         16.93756344	         16.13445386	         33.51724585	         86.51662706	         86.51662706	          0.08292959	          0.05877455	          0.05002255	          0.05877514	          0.05877467	          0.05000561	          0.18274744	          0.05877450	          0.27629347	          0.05000101	          0.05000084	          0.08903226	          0.21521625	          0.25318486	          0.21814590	          0.16191810	          0.05000036	          0.05001010	          0.09288779	          0.13800963	          0.15412481	          0.16179819	          0.05000026	          0.05000026	          0.05025302	          0.13040020	          0.09782602	          0.06908883	          0.16204460	          0.16223580	          0.13884599	          0.05000001	          0.05000003	          0.05000000	          0.05000016	          0.05000114	          0.05000049	          0.57834174	          0.19347750	          0.10782978	          0.35123141	          0.48169838	          0.25938881	          0.05568487	          0.10159221	          0.09546719	          0.21721704	          0.09766596	          0.08122368	          0.26173332	          0.18550540	          0.11222072	          0.05000211	          0.05000048	          0.05000037	          0.05878179	          0.09548910	          0.11303479	          0.05000644	          0.05000383	          0.05000645	          0.05000274	          0.31439916	          0.08979829	          0.05000460	          0.05000537	          0.05000339	          0.05000288	          0.42795638	          0.69201669	          0.05000085	          0.05152123	          0.07937311	          0.29278925	          0.05000490	          0.08741162	          0.12002445	          0.24168934	          0.34918597	          0.24283762	          0.30720789	          0.27491216	          0.37856994	          0.05000005	          0.18973165	          0.28253413	          0.05000034	          0.05000008	          0.05000030	          0.05000004	          0.05000211	          0.05000006	
          1.58997348	         -2.92137558	          2.33381896	         -5.47387783	          2.11740490	          0.92100651	         -0.00047073	         27.92965395	          4.55812028	          0.73542457	        -16.99591907	         -1.39010748	          7.79379559	        -11.96983588	         -9.61023060	          7.40547501	         -3.58014864	          1.68801817	         15.56861030	         -0.11732750	         25.07980883	         -1.99050486	         -0.98690837	          1.63177878	         -5.66160569	        -13.45783602	          5.82390180	          5.13693439	        -13.48100534	         17.14353869	         15.84683664	         34.34920470	         86.51662706	         86.51662706	          0.22469279	          0.05000021	          0.05000025	          0.05000056	          0.05000035	          0.05000045	          0.17051355	          0.05000031	          0.23772233	          0.05000013	          0.05000103	          0.08121590	          0.23471770	          0.21538751	          0.18557932	          0.16470121	          0.05000077	          0.05879663	          0.07902896	          0.16864632	          0.16998091	          0.13764577	          0.05000163	          0.05000073	          0.35610487	          0.11093261	          0.12142673	          0.05877442	          0.13785255	          0.13801522	          0.11811732	          0.06908928	          0.06908987	          0.06880930	          0.05877489	          0.05877514	          0.05877582	          0.49199903	          0.20053930	          0.10808984	          0.29879494	          0.40978439	          0.22066380	          0.05000006	          0.08642574	          0.08121456	          0.28244819	          0.08308509	          0.06909752	          0.22265939	          0.15781072	          0.09546693	          0.05000184	          0.05000063	          0.05000067	          0.05000616	          0.08123346	          0.14495584	          0.11423603	          0.05113266	          0.05001314	          0.05000309	          0.26746157	          0.09549920	          0.05002059	          0.05001100	          0.05000566	          0.05000419	          0.36406531	          0.63574871	          0.05518664	          0.05000459	          0.06752326	          0.24907771	          0.15505860	          0.09122122	          0.10211407	          0.20560666	          0.29705475	          0.20658351	          0.27520790	          0.23387081	          0.32205307	          0.05000006	          0.19333260	          0.28753674	          0.05000019	          0.05000007	          0.05000029	          0.05087585	          0.05877454	          0.05877470	
          1.60050311	         -2.91259228	          2.48677916	         -5.68024930	          2.13431739	          0.91981672	         -0.00050082	         27.13112498	          4.86096318	          0.96571470	        -16.76411563	         -1.61878060	          7.55393670	        -12.42233244	        -11.67353029	          7.06868009	         -4.56389910	          1.37651817	         15.92619961	         -0.13198682	         24.94754150	         -1.77779143	         -1.23102224	          1.65317446	         -6.34592973	        -13.46760114	          5.52679582	          4.75793393	        -13.50505414	         17.31047873	         15.58977105	         35.13927688	         86.51662706	         86.51662706	          0.30273208	          0.25413568	          0.27696423	          0.08661958	          0.09745865	          0.10574077	          0.14505710	          0.10806028	          0.20223197	          0.09546090	          0.05876431	          0.06909099	          0.19967593	          0.18323188	          0.15787414	          0.17436769	          0.05000054	          0.05001949	          0.13601875	          0.23112285	          0.19391671	          0.12293307	          0.05000027	          0.05000032	          0.30294102	          0.09437155	          0.10329894	          0.05000008	          0.11727212	          0.11741051	          0.10048322	          0.05877472	          0.05877524	          0.05853652	          0.05000021	          0.05000065	          0.05000116	          0.62382983	          0.22706510	          0.11398681	          0.53912414	          0.51075141	          0.34010774	          0.05477522	          0.09499835	          0.06908976	          0.31840361	          0.07068104	          0.05878173	          0.32327261	          0.13425068	          0.08121438	          0.05000372	          0.05000032	          0.05000025	          0.05000032	          0.06910603	          0.15467642	          0.15076717	          0.05000257	          0.05000344	          0.05000184	          0.22753158	          0.08124365	          0.05000132	          0.05000198	          0.05000122	          0.05000086	          0.30971275	          0.58768573	          0.05000018	          0.05000101	          0.05744259	          0.21189203	          0.13191125	          0.13191270	          0.11222064	          0.17491090	          0.25270638	          0.17574191	          0.23444324	          0.19895603	          0.27397311	          0.05000007	          0.18809887	          0.24461095	          0.05000063	          0.05000016	          0.05000042	          0.06092129	          0.05000003	          0.05000010	
          1.61103273	         -2.90306665	          2.63246909	         -5.85700272	          2.15118812	          0.91866630	         -0.00054996	         26.34439280	          5.16220832	          1.19440505	        -16.43240511	         -1.82898171	          7.31226188	        -12.88151665	        -13.85434060	          6.68813218	         -5.64262572	          1.08780520	         16.21916858	         -0.17334061	         24.26944522	         -1.57915549	         -1.47181821	          1.66757016	         -6.98430212	        -13.47957810	          5.28171096	          4.37143922	        -13.53302463	         17.45033361	         15.33080574	         35.86224948	         86.51662706	         86.51662706	          0.41964833	          0.37508787	          0.39498993	          0.08850721	          0.08291015	          0.21298635	          0.12340572	          0.10219047	          0.17204012	          0.08120927	          0.05000041	          0.05877672	          0.18119886	          0.23439348	          0.22516415	          0.18947511	          0.05000054	          0.05006815	          0.13959502	          0.28604011	          0.22896082	          0.17203632	          0.05000019	          0.05000019	          0.25771410	          0.08028288	          0.15318662	          0.05000013	          0.18171044	          0.18625814	          0.15363294	          0.05000014	          0.05000057	          0.05000004	          0.05000012	          0.05000102	          0.05000072	          0.66147497	          0.19316582	          0.09696935	          0.49663287	          0.50760244	          0.36799154	          0.07914331	          0.08081578	          0.05877511	          0.29956709	          0.06012885	          0.05000604	          0.27501126	          0.11420801	          0.06908964	          0.05000221	          0.05000026	          0.05000028	          0.05000013	          0.05878911	          0.14720589	          0.19944158	          0.05878941	          0.05987712	          0.15060543	          0.19356283	          0.06911510	          0.05000071	          0.05000789	          0.05000660	          0.05000922	          0.26347465	          0.53064607	          0.05000043	          0.05000150	          0.05000018	          0.18025791	          0.11221795	          0.11221919	          0.09546699	          0.14879782	          0.21497895	          0.14950476	          0.20760340	          0.16925407	          0.23307129	          0.05000042	          0.16001716	          0.20809222	          0.05000167	          0.10378289	          0.05000390	          0.08505998	          0.05000008	          0.05000009	
